<svg id="Layer_1" data-name="Layer 1" xmlns="http://www.w3.org/2000/svg" viewBox="0 0 128 128"><title>ROOF</title><path d="M98,17.426c-6.711,0-13.8,1.253-17,3.937-3.2-2.685-10.289-3.937-17-3.937s-13.8,1.253-17,3.937c-3.2-2.685-10.289-3.937-17-3.937-9.03,0-18.75,2.266-18.75,7.24v84.158a1.75,1.75,0,0,0,3.5,0c0-.871,4.754-3.74,15.25-3.74s15.25,2.869,15.25,3.74a1.75,1.75,0,1,0,3.5,0c0-.871,4.754-3.74,15.25-3.74s15.25,2.869,15.25,3.74a1.75,1.75,0,1,0,3.5,0c0-.871,4.754-3.74,15.25-3.74s15.25,2.869,15.25,3.74a1.75,1.75,0,1,0,3.5,0V24.666C116.75,19.692,107.03,17.426,98,17.426Zm0,3.5c10.5,0,15.25,2.869,15.25,3.74V62.48c-3.637-1.9-9.579-2.79-15.25-2.79s-11.613.894-15.25,2.79V24.666C82.75,23.795,87.5,20.926,98,20.926Zm-34,0c10.5,0,15.25,2.869,15.25,3.74V62.111c-3.637-1.9-9.579-2.791-15.25-2.791s-11.613.894-15.25,2.791V24.666C48.75,23.795,53.5,20.926,64,20.926Zm-34,0c10.5,0,15.25,2.869,15.25,3.74V62.111c-3.637-1.9-9.579-2.791-15.25-2.791s-11.613.894-15.25,2.791V24.666C14.75,23.795,19.5,20.926,30,20.926Zm0,80.658c-5.671,0-11.613.894-15.25,2.79V66.56c0-.871,4.754-3.74,15.25-3.74s15.25,2.869,15.25,3.74v37.816C41.613,102.478,35.671,101.584,30,101.584Zm34,0c-5.671,0-11.613.894-15.25,2.79V66.56c0-.871,4.754-3.74,15.25-3.74s15.25,2.869,15.25,3.74v37.814C75.613,102.478,69.671,101.584,64,101.584Zm49.25,2.79c-3.637-1.9-9.579-2.79-15.25-2.79s-11.613.894-15.25,2.791V66.93c0-.871,4.754-3.74,15.25-3.74s15.25,2.869,15.25,3.74Z"/><path d="M21,47.994a1.75,1.75,0,0,0,1.75-1.75v-19.5a1.75,1.75,0,0,0-3.5,0v19.5A1.75,1.75,0,0,0,21,47.994Z"/><path d="M21,55.828a1.75,1.75,0,0,0,1.75-1.75V51.911a1.75,1.75,0,0,0-3.5,0v2.167A1.75,1.75,0,0,0,21,55.828Z"/><path d="M55,68.578a1.75,1.75,0,0,0-1.75,1.75v24.25a1.75,1.75,0,0,0,3.5,0V70.328A1.75,1.75,0,0,0,55,68.578Z"/></svg>